<?xml version="1.0" encoding="utf-8"?>
<!-- Generator: Adobe Illustrator 26.0.0, SVG Export Plug-In . SVG Version: 6.00 Build 0)  -->
<svg version="1.1" id="圖層_1" xmlns="http://www.w3.org/2000/svg" xmlns:xlink="http://www.w3.org/1999/xlink" x="0px" y="0px"
	 viewBox="0 0 50 50" style="enable-background:new 0 0 50 50;" xml:space="preserve">
<style type="text/css">
	.st0{fill:#C2E9F2;}
	.st1{fill:#FFFFFF;}
	.st2{fill:#B1D7DD;}
	.st3{opacity:0.59;}
	.st4{fill:#FECD57;}
	.st5{fill:none;stroke:#C2E9F2;stroke-width:0.1891;stroke-miterlimit:10;}
	.st6{fill:#7CBDD1;stroke:#FFFFFF;stroke-width:0.404;stroke-miterlimit:10;}
	.st7{fill:#BADFE5;}
	.st8{fill:none;stroke:#C2E9F2;stroke-width:0.202;stroke-miterlimit:10;}
	.st9{fill:#7CBDD1;}
</style>
<g>
	<g>
		<g>
			<path class="st6" d="M14.67,16.4c0.5-0.87,2.8-5.16,3.44-5.97c1.39-1.76,2.34-2.92,5.12-2.98c3.16-0.08,3.97,0.87,5.5,3.02
				c0.82,1.15,1.26,2.45,1.83,3.69c0.57,1.25,1.45,2.26,2.2,3.42c1.58,2.43,2.24,5.27,1.84,8.02c-0.44,3.02-3.22,5.45-6.46,6.58
				c-4.76,1.66-9.02,1.07-12.63-1.96c-1.49-1.26-2.57-2.76-2.7-4.32C12.57,22.87,12.91,19.46,14.67,16.4z"/>
			<circle cx="25.48" cy="14.57" r="0.56"/>
			<ellipse class="st1" cx="25.27" cy="14.39" rx="0.11" ry="0.15"/>
			<path class="st7" d="M14.65,16.54c-0.8,1.73-1.41,3.55-1.77,5.42c-0.36,1.82-0.65,3.77,0.15,5.52c0.46,1.01,1.08,1.8,2.23,2.01
				c1.48,0.27,2.77-0.75,3.39-2.03c0.51-1.05,0.53-2.28,0.47-3.43c-0.09-1.47-0.3-2.94-0.9-4.29c-0.59-1.34-1.6-2.55-2.93-3.16
				c-0.2-0.09-0.43-0.17-0.64-0.11"/>
			<path class="st7" d="M31.7,16.14c0.98,1.8,2.33,3.29,2.78,5.24c0.44,1.89,0.79,3.93-0.18,5.74c-0.56,1.05-1.32,1.87-2.72,2.09
				c-1.81,0.28-3.37-0.77-4.13-2.11c-0.63-1.09-0.65-2.37-0.57-3.57c0.1-1.52,0.37-3.06,1.09-4.46c0.72-1.4,1.28-2.72,2.91-3.35
				c0.25-0.1,0.16-0.05,0.42,0.01"/>
			<g class="st3">
				<g>
					<g>
						<g>
							<path class="st1" d="M25.22,12.32c-0.31-0.35-0.2-0.66-0.23-0.98c-0.06-0.57,0.12-1.12,0.15-1.68c0-0.09,0.07-0.17,0.1-0.26
								c0.06-0.23,0.07-0.45,0.17-0.69c0.08-0.19-0.06-0.37-0.04-0.56c0.04-0.24,0.1-0.47,0.01-0.7c0-0.02-0.05-0.03-0.12-0.03
								c-0.07,0-0.12,0.02-0.12,0.04c-0.08,0.24-0.08,0.47-0.07,0.7c0.03,0.32,0.04,0.64-0.05,0.96c-0.01,0.04,0.04,0.07,0.03,0.11
								c-0.02,0.25-0.09,0.5-0.08,0.75c0.02,0.45-0.1,0.9-0.07,1.35c0.02,0.32-0.05,0.63,0.27,0.98c0,0,0.01,0,0.02,0
								C25.22,12.33,25.22,12.32,25.22,12.32z"/>
							<path class="st1" d="M24.61,12.24c-0.31-0.35-0.2-0.64-0.23-0.95c-0.06-0.56,0.12-1.09,0.15-1.64c0-0.08,0.07-0.16,0.1-0.25
								c0.06-0.23,0.07-0.44,0.17-0.67c0.08-0.19-0.06-0.36-0.04-0.54c0.04-0.23,0.1-0.46,0.01-0.68c0-0.02-0.05-0.03-0.12-0.03
								c-0.07,0-0.12,0.02-0.12,0.04c-0.08,0.23-0.08,0.46-0.07,0.68c0.03,0.31,0.04,0.62-0.05,0.93c-0.01,0.04,0.04,0.07,0.03,0.11
								c-0.02,0.25-0.09,0.48-0.08,0.73c0.02,0.44-0.1,0.87-0.06,1.32c0.02,0.31-0.05,0.61,0.28,0.96c0,0,0.01,0,0.02,0
								C24.61,12.24,24.61,12.24,24.61,12.24z"/>
							<path class="st1" d="M24,12.16c-0.31-0.34-0.2-0.63-0.23-0.93c-0.06-0.54,0.12-1.06,0.14-1.6c0-0.08,0.07-0.16,0.1-0.24
								c0.06-0.22,0.07-0.43,0.17-0.66c0.08-0.18-0.06-0.35-0.04-0.53c0.04-0.22,0.1-0.45,0.02-0.67c0-0.02-0.05-0.03-0.11-0.02
								c-0.07,0-0.12,0.02-0.12,0.04C23.84,7.78,23.83,8,23.85,8.22c0.02,0.3,0.04,0.6-0.05,0.91c-0.01,0.03,0.04,0.07,0.03,0.1
								c-0.02,0.24-0.09,0.47-0.08,0.71c0.02,0.43-0.09,0.85-0.06,1.28c0.02,0.3-0.04,0.59,0.28,0.93c0,0,0.01,0,0.02,0
								C24,12.16,24,12.16,24,12.16z"/>
							<path class="st1" d="M23.39,12.08c-0.31-0.33-0.2-0.61-0.24-0.91c-0.06-0.53,0.12-1.03,0.14-1.55c0-0.08,0.07-0.16,0.1-0.24
								c0.06-0.21,0.07-0.42,0.17-0.64c0.08-0.18-0.06-0.34-0.03-0.52c0.04-0.22,0.1-0.44,0.02-0.65c0-0.02-0.05-0.03-0.11-0.02
								c-0.07,0-0.12,0.02-0.12,0.03c-0.08,0.22-0.09,0.43-0.07,0.65c0.02,0.3,0.04,0.59-0.05,0.88c-0.01,0.03,0.04,0.07,0.03,0.1
								c-0.02,0.23-0.09,0.46-0.08,0.69c0.02,0.42-0.09,0.83-0.06,1.25c0.02,0.29-0.04,0.58,0.28,0.91c0,0,0.01,0,0.02,0
								C23.39,12.08,23.39,12.08,23.39,12.08z"/>
							<path class="st1" d="M22.79,11.99c-0.31-0.32-0.21-0.6-0.24-0.88c-0.06-0.51,0.11-1,0.14-1.51c0-0.08,0.07-0.15,0.1-0.23
								c0.06-0.21,0.07-0.41,0.17-0.62c0.08-0.17-0.06-0.33-0.03-0.5c0.04-0.21,0.1-0.42,0.02-0.63c0-0.02-0.05-0.03-0.11-0.02
								c-0.07,0-0.12,0.02-0.12,0.03c-0.08,0.21-0.09,0.42-0.07,0.63c0.02,0.29,0.04,0.57-0.05,0.86c-0.01,0.03,0.04,0.07,0.03,0.1
								c-0.02,0.23-0.09,0.44-0.08,0.67c0.02,0.41-0.09,0.8-0.06,1.21c0.02,0.28-0.04,0.56,0.29,0.89c0,0,0.01,0,0.02,0
								C22.78,12,22.79,11.99,22.79,11.99z"/>
							<path class="st1" d="M22.18,11.91c-0.31-0.32-0.21-0.58-0.24-0.86c-0.06-0.5,0.11-0.97,0.13-1.47c0-0.07,0.07-0.15,0.09-0.22
								c0.06-0.2,0.07-0.39,0.17-0.6c0.08-0.17-0.06-0.32-0.03-0.49c0.04-0.21,0.1-0.41,0.02-0.61c0-0.02-0.05-0.02-0.11-0.02
								c-0.07,0-0.12,0.02-0.12,0.03C22,7.88,22,8.08,22.01,8.28c0.02,0.28,0.04,0.55-0.06,0.83c-0.01,0.03,0.04,0.06,0.03,0.1
								c-0.02,0.22-0.09,0.43-0.07,0.65c0.02,0.4-0.09,0.78-0.05,1.18c0.02,0.28-0.04,0.54,0.29,0.86c0,0,0.01,0,0.02,0
								C22.18,11.91,22.18,11.91,22.18,11.91z"/>
						</g>
					</g>
				</g>
			</g>
			<path class="st4" d="M24.49,9.22c-0.02,0.01-0.05,0.01-0.07,0.01c-0.35,0-2.99-0.01-2.4-1.56c0.52-1.38,2.67-1.97,2.97-2.52
				c0.08-0.15,0.31-0.2,0.42-0.08c0.13,0.15,0.19,0.36,0.13,0.62c-0.04,0.16,0.14,0.28,0.32,0.21c0,0,0.01,0,0.01,0
				c0.16-0.06,0.33,0.04,0.32,0.18c-0.02,0.25-0.09,0.64-0.31,0.96c-0.06,0.08-0.05,0.18,0.01,0.24
				C26.34,7.69,26.24,8.78,24.49,9.22z"/>
			<polygon class="st1" points="22.79,16.53 23.6,17.34 24.41,16.53 23.6,15.52 			"/>
			<path class="st8" d="M15.88,18.19c0.34,1.85-0.61,3.87-2.25,4.79"/>
			<path class="st8" d="M17.39,20.83c-0.2,1.03-0.41,2.08-0.92,2.99c-0.51,0.92-1.36,1.7-2.4,1.85"/>
			<path class="st8" d="M17.67,24.58c0.08,1.04-0.32,2.11-1.07,2.83c-0.75,0.73-1.83,1.1-2.86,0.98"/>
			<path class="st8" d="M30.89,17.58c0.26,1.74,1.03,3.4,2.2,4.72"/>
			<path class="st8" d="M29.49,19.27c0.56,2.2,1.51,4.3,2.79,6.18"/>
			<path class="st8" d="M28.05,23.61c0.51,1.86,2,3.42,3.83,4.03"/>
			<circle cx="21.85" cy="14.6" r="0.56"/>
			<ellipse class="st1" cx="21.64" cy="14.42" rx="0.11" ry="0.15"/>
		</g>
		<path class="st1" d="M40.23,23.9c-0.85-3.08-3.59-5.33-6.84-5.33c-1.88,0-3.59,0.76-4.86,1.99c-1.23-1.05-2.81-1.69-4.53-1.69
			c-1.8,0-3.45,0.69-4.7,1.83c-1.25-1.14-2.9-1.83-4.7-1.83c-3.44,0-6.32,2.53-6.97,5.89c-2.08,1.23-3.41,3.08-3.41,5.16
			c0,3.69,4.21,6.69,9.4,6.69c0.25,0,0.49-0.01,0.73-0.02c1.29,1.84,3.39,3.05,5.77,3.05c1.98,0,3.76-0.83,5.05-2.18
			c1.24,1.09,2.85,1.75,4.61,1.75c2.78,0,5.19-1.65,6.36-4.06c0.08,0,0.16,0,0.24,0c4.45,0,8.06-2.68,8.06-5.99
			C44.42,26.89,42.73,24.92,40.23,23.9z"/>
	</g>
	<g>
		<path class="st9" d="M12.71,31.89c-0.81,0-1.47-0.27-1.99-0.81c-0.55-0.58-0.82-1.36-0.82-2.34s0.28-1.78,0.85-2.37
			c0.54-0.56,1.21-0.85,2.01-0.85c0.7,0,1.3,0.26,1.8,0.79l-0.65,0.78c-0.35-0.34-0.73-0.51-1.13-0.51c-0.48,0-0.86,0.19-1.16,0.56
			c-0.31,0.39-0.46,0.9-0.46,1.55c0,0.66,0.15,1.19,0.44,1.57c0.29,0.38,0.68,0.57,1.16,0.57c0.47,0,0.89-0.2,1.27-0.6l0.65,0.76
			C14.14,31.59,13.49,31.89,12.71,31.89z"/>
		<path class="st9" d="M15.65,31.78v-6.13h1.23v2.41h2.32v-2.41h1.22v3.07v3.07H19.2v-2.65h-2.32v2.65H15.65z"/>
		<path class="st9" d="M21.93,31.78v-6.13h1.23v3.07v3.07H21.93z"/>
		<path class="st9" d="M27.16,31.89c-0.81,0-1.47-0.27-1.99-0.81c-0.55-0.58-0.82-1.36-0.82-2.34s0.28-1.78,0.85-2.37
			c0.54-0.56,1.21-0.85,2.01-0.85c0.7,0,1.3,0.26,1.8,0.79l-0.65,0.78c-0.35-0.34-0.73-0.51-1.13-0.51c-0.48,0-0.86,0.19-1.16,0.56
			c-0.31,0.39-0.46,0.9-0.46,1.55c0,0.66,0.15,1.19,0.44,1.57c0.29,0.38,0.68,0.57,1.16,0.57c0.47,0,0.89-0.2,1.27-0.6l0.65,0.76
			C28.6,31.59,27.95,31.89,27.16,31.89z"/>
		<path class="st9" d="M30.11,31.78v-6.13h1.23v2.41h2.32v-2.41h1.22v3.07v3.07h-1.22v-2.65h-2.32v2.65H30.11z"/>
		<path class="st9" d="M36.38,31.78v-6.13h1.23v3.07v3.07H36.38z"/>
	</g>
</g>
</svg>
